<svg xmlns="http://www.w3.org/2000/svg" xmlns:xlink="http://www.w3.org/1999/xlink" version="1.1" id="Logo" x="0" y="0" width="311.4" height="317.5" viewBox="0 0 311.4 317.5" enable-background="new 0 0 311.4 317.5" xml:space="preserve">
  <g id="Back">
    <circle cx="153" cy="161.1" r="153"/>
    <path d="M10.6 188.9c0.9 5.7 1.6 9.5 2.1 12.2 0.2 1.3 0.4 2.4 0.4 3.3 0.1 0.9 0.2 1.5 0.2 2.1 0 1.1-0.1 1.8-0.2 2.8 0 0.5 0 1 0 1.7 0.1 0.7 0.2 1.5 0.5 2.6 0 0-0.1-0.2-0.2-0.5 -0.1-0.3-0.3-0.7-0.5-1.2 -0.4-1-0.9-2.4-1.5-3.8 -0.5-1.4-1.1-2.8-1.4-3.9 -0.4-1.1-0.6-1.8-0.6-1.8 -1.9-7.7-3.5-17.7-3.7-25.1 -0.1-3.7 0-6.8 0.1-8.7 0.2-1.9 0.5-2.5 0.9-1.4 0.1 0.8 0.7 3.8 1.4 7.9 0.3 2 0.9 4.3 1.2 6.7 0.2 1.2 0.4 2.4 0.7 3.6C10.2 186.5 10.5 187.7 10.6 188.9z"/>
    <path d="M2.4 162.7c0.1 2.2-0.1 2.6 0 4.9l-1.7-6.5L2.4 162.7z"/>
    <path d="M21.4 229.3c0 0 0.3 0.6 0.8 1.5 0.5 0.9 1.2 2.1 1.9 3.3 0.7 1.2 1.4 2.4 1.9 3.3 0.3 0.5 0.5 0.8 0.7 1.1 0.2 0.3 0.3 0.4 0.3 0.4 0.6 1.1 0 0.4-0.7-0.6 -0.7-1-1.6-2.2-1.6-2 0 0 0.4 0.7 0.9 1.7 0.6 1 1.4 2.4 2.1 3.8 0.8 1.4 1.5 2.7 2.2 3.7 0.6 1 1.1 1.7 1.1 1.7 -0.6-0.9-1.1-1.7-1.7-2.5 -0.5-0.8-1-1.5-1.4-2.2 -0.9-1.4-1.6-2.6-2.3-3.6 -1.3-2.1-2.1-3.5-2.8-4.6C21.6 232.1 21.3 231.3 21.4 229.3z"/>
    <path d="M136.5 316.4c2.2 0.4 2.9 0.7 2.6 0.8 -0.3 0.1-1.6 0.3-3.2 0.3 -1.6 0-3.7-0.1-5.5-0.2 -1.9 0-3.5-0.3-4.4-0.2 -1.8-0.4-3.6-0.7-5.1-1.2 -1.5-0.5-2.8-0.9-3.6-1.3 -1.7-0.7-1.8-1.2 1.2-0.8 1.2 0.3 2.3 0.5 3.3 0.8 1 0.2 2 0.3 2.9 0.5 1.8 0.3 3.3 0.5 4.7 0.7C132 316 134.2 316.2 136.5 316.4z"/>
    <path d="M63.2 278.3c-1-0.4-3-1.6-5.3-3.3 -2.2-1.8-4.9-3.8-7.2-6 -1.2-1.1-2.3-2.1-3.3-3 -1-1-1.9-1.8-2.6-2.5 -1.5-1.4-2.4-2-2.2-1.3 0.3 1.2 0.6 2.3 2.4 4.8 0 0 0.1 0.1 0.4 0.4 0.3 0.2 0.6 0.6 1.1 0.9 0.9 0.8 2.1 1.8 3.3 2.8 0.6 0.5 1.2 1 1.8 1.5 0.6 0.5 1.1 0.9 1.6 1.2 0.9 0.7 1.5 1.2 1.5 1.2 2.8 2.6 5 4.3 6.4 5.5 1.4 1.2 2 1.8 2.2 2.1 0.2 0.3-0.2 0.1-0.8-0.2 -0.6-0.3-1.5-0.9-2.5-1.5 -2-1.2-4.2-2.6-4.9-2.8 -0.7-0.2-0.1 0.8 3.9 4.4 0.9 0.7 1.7 1.3 2.4 1.8 0.7 0.5 1.4 0.9 2 1.3 1.2 0.8 2.1 1.3 2.9 1.8 1.1 0.7 2.1 1.2 2.9 1.6 0.8 0.4 1.4 0.7 1.9 1 1 0.5 1.4 0.6 1.4 0.4 0-0.3-1.8-1.8-4.1-3.7 6.3 4.1 10.4 6.6 13.2 8.5 2.9 1.8 4.3 3.2 5.5 4.2 1.1 1 1.9 1.9 3.3 3 0.7 0.5 1.6 1.1 2.8 1.7 1.2 0.6 2.7 1.2 4.6 2 10.8 3.7 13.2 3.3 13.4 2.6 0.2-0.7-1.5-2.1 1.2-1.8 -0.2 0.5 2 1.9 6.1 3.3 1 0.4 2.2 0.8 3.4 1.2 1.3 0.4 2.6 0.7 4.1 1.1 1.5 0.4 3 0.8 4.6 1.1 1.6 0.3 3.4 0.6 5.1 1 7.2 1.1 15.5 2 24.1 1.8 8.6-0.2 17.5-1.2 25.8-2.9 1.9-0.5 3.8-1 5.8-1.5 1.9-0.5 3.9-1.1 5.8-1.7 2-0.5 3.9-1.2 5.8-1.9 1-0.3 2-0.7 2.9-1 1-0.3 1.9-0.7 2.9-1.1 1-0.4 2-0.8 2.9-1.1 1-0.4 2-0.7 2.9-1.2 1.9-0.8 3.9-1.7 5.8-2.6 1.9-0.9 3.9-1.9 5.8-2.9 1.9-1 3.8-2.1 5.7-3.1 15.2-8.7 29.8-20.5 41.2-35.6 5.2-6.1 10.8-13.6 15.8-22.2 5.1-8.6 9.6-18.3 12.9-28.4 0.1 0 0.3 0 0.4 0.1 0.1-0.5 0.1-0.9-0.1-0.9 0.8-1.8 1.5-4 2.3-6.4 0.4-1.2 0.8-2.5 1.1-3.8s0.7-2.7 1-4.1c0.4-1.4 0.6-2.8 0.9-4.3 0.3-1.5 0.5-2.9 0.8-4.4 0.4-3 0.8-5.9 1.1-8.8 0.2-2.9 0.4-5.7 0.6-8.3 0.1-2.6 0.2-5 0.3-7.1 0.1-4.2 0.3-7.2 1-8.2l-0.5-3.8c-0.4-4.8-0.7-7.2-0.8-8.2 0-1.1 0.1-0.8 0.4-0.4 0.5 1 1.2 3 0.7-2.6 -1.5-8.8-3.4-19.1-6.2-28.1 -0.4-1.1-0.7-2.2-1-3.3 -0.3-1.1-0.8-2.1-1.1-3.1 -0.8-2-1.5-3.9-2.3-5.7 -1.7-3.4-3.2-6.3-4.8-8 -0.5-1.4 0.5 0.3-0.1-1.1 0 0-0.4-0.8-1.1-2 -0.3-0.6-0.7-1.3-1.1-2 -0.4-0.7-0.9-1.5-1.4-2.3 -1-1.5-1.9-3.1-2.6-4.3 -0.8-1.1-1.3-1.9-1.3-1.9 -1-0.5-3.1-2.6-2.3-0.3 -1.7-2.9-4-4.8-6.6-8.8 -7.4-9.4 0-1.8-2.3-5.5 -1.2-1.5-2.5-2.9-3.8-4.3 -1.3-1.4-2.6-2.9-4-4.3 -1.4-1.4-2.7-2.8-4.1-4.2 -1.4-1.3-2.9-2.7-4.4-4.1 -5.9-5.3-12.2-10.3-18.9-14.9 -6.7-4.5-13.6-8.5-20.5-12 -7-3.5-14-6.4-20.8-8.9C200.9 8.1 193 5 183 3c-5-1-10.5-1.8-15.6-2.2 -2.6-0.2-5-0.4-7.3-0.5 -2.3 0-4.3-0.1-6.1-0.1C147-0.2 139.6 0 132.2 1.1c-3.7 0.4-7.3 1.2-10.9 2 -1.8 0.4-3.6 0.9-5.3 1.4 -1.8 0.5-3.5 0.9-5.2 1.5 -1.7 0.6-3.4 1.1-5.1 1.6 -1.7 0.6-3.3 1.2-4.9 1.8 -3.3 1.1-6.3 2.6-9.3 3.8 -3 1.3-5.8 2.6-8.5 3.8 -1.3 0.7-2.7 1.3-4 1.9 -1.3 0.6-2.6 1.1-3.8 1.7 5.2-3.6 13.1-7.5 20-10 0.9-0.3 1.7-0.7 2.5-1 0.8-0.3 1.6-0.6 2.4-0.8 1.5-0.5 3-1 4.2-1.5 2.5-0.9 4.2-1.5 4.7-2 0 0-1.5 0.3-2.9 0.5 -0.7 0.1-1.5 0.2-2 0.4 -0.5 0.1-0.9 0.2-0.9 0.2 -6.4 1.8-14.6 4.7-21.8 8.1 -1.8 0.9-3.5 1.8-5.2 2.6 -1.7 0.9-3.2 1.8-4.6 2.7 -2.8 1.7-5.1 3.4-6.5 4.8 1.7-0.8 2.9-1.4 4-1.9 1.1-0.4 1.9-0.7 2.5-0.8 1.3-0.4 2.1-0.4 3.3-0.8 -2.4 1.6-3.8 2.6-5.3 3.8 -1.5 1.2-3.1 2.4-6.1 4.5 -2.1 1.6-4.4 3.1-6.4 4.7 -2 1.6-4 3-5.7 4.3 -3.3 2.6-5.7 4.3-6.1 3.9 1-1 2.1-2 3.3-3 1.1-1 2.2-2 3.4-2.9 1.2-0.9 2.4-1.8 3.5-2.7 0.6-0.4 1.1-0.9 1.7-1.3 0.6-0.4 1.1-0.8 1.7-1.2 0.2-0.5-0.6-0.2-2 0.6 -1.4 0.8-3.3 2.2-5.5 3.8 -1.1 0.8-2.2 1.7-3.2 2.5C47.1 39 46 39.9 45 40.8c-2 1.7-3.8 3.4-5 4.4 5-3 2.2 0.9 1.1 3 -0.3 0.5-0.4 0.9-0.3 1.1 0.1 0.2 0.4 0.1 1.1-0.3 0.7-0.4 1.8-1.2 3.4-2.5 0.8-0.6 1.7-1.4 2.9-2.3 1.1-0.9 2.4-1.8 3.9-3 0 0-0.7 0.7-1.9 1.7 -1.1 1-2.6 2.4-4 3.8 -1.4 1.4-2.8 2.9-3.9 4 -1 1.1-1.7 1.9-1.7 1.9 -1.7 2.6-0.2 1.7 2.7-0.9 1.5-1.2 3.4-2.8 5.4-4.5 2.1-1.7 4.3-3.4 6.5-5.1 2.2-1.6 4.4-3.1 6.2-4.3 1.8-1.1 3.3-2 4.2-2.4 1.8-0.8 1 0.3-4.1 4.8 -0.9 1.1-0.5 1.3-0.7 1.9 -0.1 0.3-0.4 0.7-1.1 1.5 -0.7 0.7-1.8 1.7-3.4 3.4 0.5-0.3 1.1-0.7 1.8-1.1 0.6-0.4 1.3-0.9 2-1.3 1.4-1 2.9-2.1 4.3-3.1 3-2.1 5.7-4.3 7.3-5.5 3.3-1.2 11.5-6 19.6-9.6 4-1.8 8-3.2 11-4.2 3.1-0.8 5.2-1.2 5.6-0.6 1.5-0.7 2.9-1.1 4.3-1.6 1.4-0.5 2.8-0.9 4.1-1.4 2.7-0.7 5.3-1.4 7.8-1.8 2.5-0.4 4.9-0.8 7.2-1 2.4-0.2 4.6-0.3 6.9-0.4 2.3 0 4.5 0 6.8 0 2.3 0.1 4.6 0.3 6.9 0.4 2.4 0.1 4.8 0.4 7.4 0.6 2.6 0.2 5.2 0.6 8.1 0.8 1.8 0.2 3.4 0.5 4.8 0.7 1.4 0.2 2.7 0.3 3.8 0.6 2.2 0.4 3.9 0.6 5.1 0.8 2.4 0.3 3.1 0.3 3.1 0 0.1-0.6-2.4-2 1.9-1.7 3.6 0.9 7.1 2.1 10.5 3 3.4 1.2 6.8 2.1 9.9 3.2 6.3 2.1 11.8 4.4 16 6.2 0.9 0.4 1.7 0.9 2.5 1.4 0.8 0.5 1.5 0.9 2.1 1.3 1.3 0.8 2.3 1.5 2.9 2.1 1.2 1.1 0.9 1.2-1.5 0 25.3 16.4 45.5 40.4 57.1 68 2.9 6.9 5.3 14 7.1 21.2 1.8 7.2 3.1 14.6 3.8 22 0.6 7.4 0.8 14.9 0.5 22.3 -0.5 7.4-1.4 14.8-2.8 22 -3.2 11.6-6.8 22.5-11.7 33 -5 10.3-11.4 20-19.8 28.2l2.8-2.7c0.6-0.3-1.2 2.2-2.6 4.1 2.8-2.7 5.6-5.3 8.1-8 -2.1 2.8-4.4 5.5-6.6 8.3 -2.4 2.6-4.6 5.3-7.1 7.8 -1.9 3.5-9.1 10.6-17.4 16.8 -8.3 6.2-17.5 11.4-21.6 14.4 -2.2 1.1-4.3 1.9-6.1 2.8 -0.9 0.4-1.8 0.8-2.7 1.1 -0.9 0.3-1.7 0.6-2.5 0.9 -1.6 0.6-3 1.1-4.3 1.5 -1.3 0.4-2.5 0.8-3.6 1.1 -1.1 0.3-2.1 0.6-3 0.9 -0.9 0.2-1.8 0.4-2.6 0.6 -1.6 0.4-3 0.7-4.4 0.9 -1.4 0.2-2.8 0.5-4.5 0.7 -0.8 0.1-1.7 0.3-2.6 0.4 -1 0.1-2 0.3-3.1 0.4 -1.1 0.2-2.4 0.3-3.8 0.5 -1.4 0.1-2.9 0.3-4.6 0.4 -0.8 0.1-1.7 0.2-2.6 0.3 -0.9 0-1.9 0.1-2.9 0.1 -2 0.1-4.3 0.3-6.7 0.2 -10.4 0.7-22 0.4-33.8-1.6 -11.8-2.1-23.9-5.9-35-11.4 -2-1.1-3.9-2.1-5.7-3.1 -1.7-1.1-3.2-2.1-4.5-3 -1.2-0.8-2.1-1.6-2.6-2.1 -0.5-0.5-0.6-0.7-0.3-0.6 -1.1-0.7-2.3-1.5-3.6-2.2 -1.2-0.8-2.5-1.7-3.8-2.6 -0.6-0.5-1.3-0.9-1.9-1.4 -0.7-0.5-1.3-1-1.9-1.5 -1.3-1-2.6-2-3.9-3 -2.5-2.2-5.1-4.3-7.3-6.5 -1.1-1.1-2.3-2.2-3.3-3.2 -1-1.1-2-2.2-3-3.2 -1.1-1-2-2-2.9-3 -0.9-0.9-1.7-1.8-2.5-2.6 -1.5-1.6-2.7-3-3.8-4.2 -1-1.1-1.9-2-2.5-2.7 -0.6-0.7-1.1-1.1-1.3-1.3 -0.6-0.4-0.5 0 0 1 0.3 0.5 0.6 1.2 1.1 2 0.5 0.8 1.1 1.7 1.8 2.7 0.7 1 1.5 2.2 2.3 3.3 0.9 1.2 1.9 2.4 2.9 3.7 0.5 0.6 1 1.3 1.6 1.9 0.6 0.6 1.1 1.3 1.7 1.9 1.2 1.3 2.3 2.6 3.5 3.9 1.2 1.2 2.5 2.5 3.7 3.7 1.2 1.2 2.5 2.3 3.6 3.3C59.1 275.1 61.4 276.9 63.2 278.3z"/>
    <path d="M232.9 20.2c0.6 0 0.3-0.4-0.5-1.1 -0.4-0.3-0.9-0.8-1.6-1.2 -0.6-0.4-1.4-0.9-2.1-1.4 -1.6-1-3.3-2-4.9-3 -1.6-0.9-3.1-1.7-4.1-2.2 0 0-1.4-0.5-2.8-1.1 -1.4-0.5-2.8-0.9-2.8-0.9 -1.8-0.6-3.3-1.2-4.6-1.6 -1.4-0.4-2.5-0.7-3.5-0.9 -1.9-0.5-3.1-0.6-3.6-0.5 -0.9 0.2 1.1 1.3 5.3 3.2 0.9 0 2.5 0.5 4.4 1.1 1 0.3 2.1 0.7 3.3 1.1 1.2 0.4 2.4 1 3.6 1.5 1.2 0.5 2.5 1.1 3.8 1.7 1.3 0.6 2.5 1.3 3.7 1.9 1.2 0.6 2.4 1.2 3.4 1.8C231 19.1 232 19.7 232.9 20.2z"/>
    <path d="M307.3 109.7l-1.7-1.5c0 0 0.4 1.1 1 2.7 0.3 0.8 0.7 1.7 1 2.7 0.3 1 0.6 2.1 1 3.2 0.7 2.2 1.3 4.3 1.7 6 0.4 1.7 0.7 2.8 0.7 2.8 0.3-0.3 0-2.6-0.7-5.7C309.4 116.8 308.5 113 307.3 109.7z"/>
    <path d="M15.1 92c3.7-7.3 7.1-11.9 10.5-16.7 3.6-4.6 7.1-9.4 12.7-15.9l-3.7 1.1c-5.8 6.2-11.4 12.9-16.5 20.6C13 88.9 8.4 97.5 4.9 107.2c-0.6 3.5-0.3 3.7 0.4 2.3 0.7-1.4 2.1-4.4 3.5-7.6 0.7-1.6 1.6-3.2 2.3-4.7 0.8-1.5 1.5-2.9 2.1-3.9C14.6 91.2 15.4 90.4 15.1 92z"/>
    <path d="M37.4 64.8c-4.3 5.9-8.6 12.2-12.6 18.7C20.9 90.1 17.3 97 14.3 104c-0.7 1.8-1.4 3.5-2.1 5.3 -0.6 1.8-1.2 3.5-1.8 5.3 -0.6 1.7-1.1 3.5-1.6 5.3 -0.5 1.8-1 3.5-1.3 5.2 -0.3 1.7-0.7 3.5-1 5.2 -0.3 1.7-0.5 3.4-0.7 5 -0.4 3.3-0.4 6.5-0.5 9.6 0.7-0.8 1.3-2.1 1.9-3.8 0.3-0.9 0.5-1.9 0.8-2.9 0.3-1.1 0.6-2.2 0.9-3.5 1.1-5 2.5-11.2 4.2-17.7 1.8-6.5 4.1-13.2 6.8-19.2 2.7-6 5.6-11.3 8.4-14.9 0.8-1.3 1.5-2.6 2.2-3.8 0.7-1.2 1.5-2.3 2.1-3.4 0.7-1.1 1.4-2.2 2.1-3.3 0.7-1 1.5-2.1 2.2-3.2 3-4.3 6.6-8.7 11.8-14.3 3.7-4.2 2.2-3.3-1.1-0.6 -1.6 1.4-3.5 3.3-5.4 5.1C40.4 61.4 38.7 63.3 37.4 64.8z"/>
    <path d="M2.6 152.4c-0.2 3.2 0 6.9 0.1 8.7 0.4 2.3 0.8-3.7 1.2-6.3 0-0.4 0-0.9 0-1.4 0-0.5 0-1.1 0-1.6 0-1.1-0.1-2.1-0.2-2.8C3.5 147.6 3.1 147.8 2.6 152.4z"/>
  </g>
  <path id="J-path" fill="#FFFFFF" stroke="#000000" stroke-miterlimit="10" d="M63 175.6l36 36 17.1 19 0.4-74 0.5-125h26.5c0 224.5 0 199.4 0 198 0 8.5-17.8 35.8-26.8 35.8s-62.9-63.1-62.9-63.1L27 175.6H63z"/>
  <path id="K-path" fill="#FFFFFF" stroke="#000000" stroke-miterlimit="10" d="M270 175.1l-36 36.1 27 35.9 -18 18 -27-36c0 0-27.3 36-36.3 36s-27.3-27-27.3-35.5c0 4.5 0 8.5 0-198H180l0.5 125 0.4 74 17.1-19.1 36-35.8L270 175.1"/>
</svg>
